<svg id="Layer_1" enable-background="new 0 0 256 256" height="512" viewBox="0 0 256 256" width="512" xmlns="http://www.w3.org/2000/svg"><g id="Layer_57"><g><ellipse cx="132.7" cy="10.4" fill="#fcdd86" rx="47.5" ry="7.9"/><path d="m132.7 35.7c-26.2 0-47.5-3.5-47.5-7.9v17.4c0 4.3 21.3 7.9 47.5 7.9s47.5-3.5 47.5-7.9v-17.4c0 4.3-21.3 7.9-47.5 7.9z" fill="#f5c84c"/><path d="m132.7 18.2c-26.2 0-47.5-3.5-47.5-7.9v17.4c0 4.3 21.3 7.9 47.5 7.9s47.5-3.5 47.5-7.9v-17.3c0 4.3-21.3 7.8-47.5 7.8z" fill="#edb311"/><path d="m132.7 70.6c-26.2 0-47.5-3.5-47.5-7.9v17.4c0 4.3 21.3 7.9 47.5 7.9s47.5-3.5 47.5-7.9v-17.4c0 4.3-21.3 7.9-47.5 7.9z" fill="#f5c84c"/><path d="m132.7 53.1c-26.2 0-47.5-3.5-47.5-7.9v17.4c0 4.3 21.3 7.9 47.5 7.9s47.5-3.5 47.5-7.9v-17.4c0 4.4-21.3 7.9-47.5 7.9z" fill="#edb311"/><path d="m51.6 146.2c-4-.7-7.1-3.8-7.9-7.7 0-.1-.1-.2-.2-.1-.1 0-.1.1-.1.1-.8 4-3.9 7-7.9 7.7-.1 0-.2.1-.1.2 0 .1.1.1.1.1 4 .7 7.1 3.8 7.9 7.7 0 .1.1.2.2.1.1 0 .1-.1.1-.1.8-4 3.9-7 7.9-7.7.1 0 .2-.1.1-.2 0 0 0 0-.1-.1z" fill="#ef4460"/><circle cx="205.7" cy="71" fill="#ef4460" r="3"/><circle cx="217.7" cy="221" fill="#87d147" r="3"/><circle cx="63.7" cy="122" fill="#f5c84c" r="3"/><path d="m203.3 37.2h-2.1v-2.1c0-1.5-1.3-2.8-2.8-2.8s-2.8 1.3-2.8 2.8v2.1h-2.1c-1.5 0-2.8 1.3-2.8 2.8s1.3 2.8 2.8 2.8h2.1v2.1c0 1.5 1.3 2.8 2.8 2.8s2.8-1.3 2.8-2.8v-2.1h2.1c1.5 0 2.8-1.3 2.8-2.8s-1.3-2.8-2.8-2.8z" fill="#3caadc"/><path d="m208.1 241.6h-150.8c-1.7 0-3.1 1.4-3.1 3.1 0 4.9 3.9 8.8 8.8 8.8h139.3c4.9 0 8.8-3.9 8.8-8.8.1-1.7-1.3-3.1-3-3.1z" fill="#edf4fc"/><path d="m194.3 146.1h-123c-4.1 0-7.5 3.4-7.5 7.5v80.9.6c.4 3.8 3.6 6.7 7.4 6.6h123.2c3.8.1 7-2.8 7.4-6.6 0-.2 0-.4 0-.6v-80.9c-.1-4.2-3.4-7.5-7.5-7.5z" fill="#3a70bf"/><path d="m75.2 156h115.1c.8 0 1.5.7 1.5 1.5v72.7c0 .8-.7 1.5-1.5 1.5h-115.1c-.8 0-1.5-.7-1.5-1.5v-72.7c0-.8.6-1.5 1.5-1.5z" fill="#ef4460"/><path d="m190.3 156h-115.1c-.8 0-1.5.7-1.5 1.5v9.3h118.1v-9.3c0-.8-.7-1.5-1.5-1.5z" fill="#edf4fc"/><path d="m91.1 156h-15.9c-.8 0-1.5.7-1.5 1.5v9.3h17.4z" fill="#9be5f9"/><path d="m51.8 244.7c0 6.2 5.1 11.3 11.3 11.3h139.3c6.2 0 11.3-5.1 11.3-11.3 0-3.1-2.5-5.6-5.6-5.6h-5.1c.8-1.4 1.3-3 1.2-4.7v-80.9c0-5.5-4.5-10-10-10h-123c-5.5 0-10 4.5-10 10v80.9c0 1.6.4 3.3 1.2 4.7h-5.1c-3 0-5.5 2.5-5.5 5.6zm14.4-91.1c0-2.8 2.2-5 5-5h123c2.8 0 5 2.2 5 5v80.9c-.1 2.7-2.3 4.8-4.9 4.7h-123.2c-2.7.1-4.9-2-4.9-4.7zm141.9 90.5c.3 0 .6.3.6.6 0 3.5-2.8 6.3-6.3 6.3h-139.3c-3.5 0-6.3-2.8-6.3-6.3 0-.3.3-.6.6-.6z"/><path d="m75.2 234.1h115.1c2.2 0 4-1.8 4-4v-72.7c0-2.2-1.8-4-4-4h-115.1c-2.2 0-4 1.8-4 4v72.7c0 2.3 1.8 4 4 4zm18.4-75.6h95.7v5.8h-95.7zm-17.4 0h12.4v5.8h-12.4zm0 10.8h113.1v59.8h-113.1z"/><path d="m82.8 10.4v69.8c0 9.7 40.3 10.4 50 10.4s50-.7 50-10.4v-69.8c0-9.7-40.3-10.4-50-10.4s-50 .7-50 10.4zm49.9-5.4c24.3 0 40.8 3 44.5 5.3-7 4.5-36.1 5.4-44.5 5.4-8 0-37.9-1-44.5-5.4 3.7-2.3 20.2-5.3 44.5-5.3zm-44.9 10.6c10.1 4.2 33.4 5.1 45 5.1s34.9-.9 45-5.1v11.8c-3.4 3.4-25.6 5.1-30.4 5.3-4.9.3-9.8.4-14.5.4-10.9 0-24.6-.6-35.3-2.6-2.1-.4-8.2-1.6-9.7-3.1zm0 17.5c10.1 4.2 33.4 5.1 45 5.1 11.1 0 34.8-.9 45-5.1v11.8c-4.7 4.7-38 5.7-45 5.7-10.6.1-21.3-.6-31.8-2.1-2.6-.4-11.3-1.8-13.2-3.7zm0 17.4c10.1 4.1 33.4 5.1 45 5.1s35-1 45-5.1v11.8c-4.9 4.9-37.8 5.7-45 5.7-7 0-40.4-1.1-45-5.7zm0 17.5c10.2 4.2 33.8 5.1 45 5.1 11.6 0 34.9-.9 45-5.1v11.8c-2.4 2.4-19.3 5.7-45 5.7s-42.6-3.3-45-5.7z"/><path d="m159.2 95.6c-1.4 0-2.5 1.1-2.5 2.5v31.6l-1.5-1.5c-1-1-2.6-.9-3.5 0-.9 1-.9 2.5 0 3.5l5.8 5.8c1 1 2.6 1 3.5 0l5.8-5.8c1-1 .9-2.6 0-3.5-1-.9-2.5-.9-3.5 0l-1.5 1.5v-31.6c-.1-1.4-1.2-2.5-2.6-2.5z"/><path d="m132.7 95.6c-1.4 0-2.5 1.1-2.5 2.5v31.6l-1.5-1.5c-1-1-2.6-.9-3.5 0-.9 1-.9 2.5 0 3.5l5.8 5.8c1 1 2.6 1 3.5 0l5.8-5.8c1-1 .9-2.6 0-3.5-1-.9-2.5-.9-3.5 0l-1.5 1.5v-31.6c-.1-1.4-1.2-2.5-2.6-2.5z"/><path d="m106.2 95.6c-1.4 0-2.5 1.1-2.5 2.5v31.6l-1.5-1.5c-1-1-2.6-.9-3.5 0-.9 1-.9 2.5 0 3.5l5.8 5.8c1 1 2.6 1 3.5 0l5.8-5.8c1-1 .9-2.6 0-3.5-1-.9-2.5-.9-3.5 0l-1.5 1.5v-31.6c-.1-1.4-1.2-2.5-2.6-2.5z"/><path d="m177.7 175.5h-90c-1.4 0-2.5 1.1-2.5 2.5s1.1 2.5 2.5 2.5h90c1.4 0 2.5-1.1 2.5-2.5s-1.1-2.5-2.5-2.5z"/><path d="m87.7 191.2h89.3c1.4 0 2.5-1.1 2.5-2.5s-1.1-2.5-2.5-2.5h-89.3c-1.4 0-2.5 1.1-2.5 2.5s1.1 2.5 2.5 2.5z"/><path d="m177.7 196.8h-90c-1.4 0-2.5 1.1-2.5 2.5s1.1 2.5 2.5 2.5h90c1.4 0 2.5-1.1 2.5-2.5s-1.1-2.5-2.5-2.5z"/><path d="m87.7 212.5h89.3c1.4 0 2.5-1.1 2.5-2.5s-1.1-2.5-2.5-2.5h-89.3c-1.4 0-2.5 1.1-2.5 2.5s1.1 2.5 2.5 2.5z"/><path d="m177.7 218.1h-90c-1.4 0-2.5 1.1-2.5 2.5s1.1 2.5 2.5 2.5h90c1.4 0 2.5-1.1 2.5-2.5s-1.1-2.5-2.5-2.5z"/></g></g></svg>